<svg xmlns="http://www.w3.org/2000/svg" width="24" height="23" viewBox="0 0 24 23">
  <g id="request" transform="translate(-12211 -4290)">
    <g id="Group_20067" data-name="Group 20067" transform="translate(37)">
      <g id="Path_8478" data-name="Path 8478" transform="translate(12184 4290)" fill="#fff" stroke-linecap="round">
        <path d="M 0.5 14.78629684448242 L 0.5 2.99999737739563 C 0.5 1.621497273445129 1.621500015258789 0.4999973177909851 3 0.4999973177909851 L 11 0.4999973177909851 C 12.37849998474121 0.4999973177909851 13.5 1.621497273445129 13.5 2.99999737739563 L 13.5 10.99999713897705 C 13.5 12.37849712371826 12.37849998474121 13.49999713897705 11 13.49999713897705 L 3 13.49999713897705 C 2.023750066757202 13.49999713897705 1.215909957885742 14.18219757080078 0.6260499954223633 14.68031692504883 C 0.5865353345870972 14.71368503570557 0.5436326861381531 14.74991416931152 0.5 14.78629684448242 Z" stroke="none"/>
        <path d="M 3 0.9999971389770508 C 1.897199630737305 0.9999971389770508 1 1.897197723388672 1 2.999997138977051 L 1 13.74410152435303 C 1.544390678405762 13.35459136962891 2.219094276428223 12.99999713897705 3 12.99999713897705 L 11 12.99999713897705 C 12.1028003692627 12.99999713897705 13 12.10279750823975 13 10.99999713897705 L 13 2.999997138977051 C 13 1.897197723388672 12.1028003692627 0.9999971389770508 11 0.9999971389770508 L 3 0.9999971389770508 M 3 -1.9073486328125e-06 L 11 -1.9073486328125e-06 C 12.65684986114502 -1.9073486328125e-06 14 1.343147277832031 14 2.999997138977051 L 14 10.99999713897705 C 14 12.65685749053955 12.65684986114502 13.99999713897705 11 13.99999713897705 L 3 13.99999713897705 C 1.343149185180664 13.99999713897705 9.5367431640625e-07 16.6568546295166 0 14.99999713897705 L 0 2.999997138977051 C 0 1.343147277832031 1.34315013885498 -1.9073486328125e-06 3 -1.9073486328125e-06 Z" stroke="none" fill="#ee2e2b"/>
      </g>
      <g id="Ellipse_251" data-name="Ellipse 251" transform="translate(12176 4302)" fill="#fff" stroke="#707070" stroke-linecap="round" stroke-width="1">
        <circle cx="3.5" cy="3.5" r="3.5" stroke="none"/>
        <circle cx="3.5" cy="3.5" r="3" fill="none"/>
      </g>
      <g id="Subtraction_22" data-name="Subtraction 22" transform="translate(12172 4308)" fill="#fff" stroke-linecap="round">
        <path d="M 12.46894073486328 4.500400066375732 L 2.53045392036438 4.500400066375732 C 2.807723522186279 2.253363847732544 4.930540084838867 0.5000000596046448 7.499699592590332 0.5000000596046448 C 10.06869220733643 0.5000000596046448 12.19168281555176 2.253383874893188 12.46894073486328 4.500400066375732 Z" stroke="none"/>
        <path d="M 11.85725402832031 4.000400066375732 C 11.35647487640381 2.276878833770752 9.592546463012695 1 7.499699592590332 1 C 5.406750679016113 1 3.642919540405273 2.276921272277832 3.142125368118286 4.000400066375732 L 11.85725402832031 4.000400066375732 M 12.99959945678711 5.000400066375732 L 1.999799609184265 5.000400066375732 C 1.999799609184265 2.242720127105713 4.467489719390869 3.318786667705353e-08 7.499699592590332 3.318786667705353e-08 C 10.53175926208496 3.318786667705353e-08 12.99899959564209 2.242720127105713 12.99959945678711 4.99940013885498 L 12.99959945678711 5.000400066375732 Z" stroke="none" fill="#707070"/>
      </g>
      <line id="Line_218" data-name="Line 218" x2="7" transform="translate(12187.5 4294.5)" fill="none" stroke="#ee2e2b" stroke-linecap="round" stroke-width="1"/>
      <line id="Line_219" data-name="Line 219" x2="7" transform="translate(12187.5 4297)" fill="none" stroke="#707070" stroke-linecap="round" stroke-width="1"/>
      <line id="Line_220" data-name="Line 220" x2="3" transform="translate(12187.5 4300)" fill="none" stroke="#ee2e2b" stroke-linecap="round" stroke-width="1"/>
    </g>
    <path id="Path_8479" data-name="Path 8479" d="M12217.291,4310.264a1.729,1.729,0,0,1,1.232.836" fill="none" stroke="#ee2e2b" stroke-linecap="round" stroke-width="1"/>
  </g>
</svg>
